<svg width="52" height="49" viewBox="0 0 52 49" fill="none" xmlns="http://www.w3.org/2000/svg">
<path d="M8.56179 5.54354C10.1488 5.54354 11.4353 4.35231 11.4353 2.88286C11.4353 1.4134 10.1488 0.222168 8.56179 0.222168C7.49814 0.222168 6.56956 0.757232 6.07272 1.55251H5.68824C3.30773 1.55251 1.37793 3.33936 1.37793 5.54354V17.5166H4.25147V5.54354C4.25147 4.80882 4.89474 4.2132 5.68824 4.2132H6.07272C6.56956 5.00848 7.49814 5.54354 8.56179 5.54354Z" fill="#555555"/>
<path fill-rule="evenodd" clip-rule="evenodd" d="M5.91744 17.5166H4.2505H1.37696C0.583459 17.5166 -0.0665505 18.1136 0.00546052 18.8452C0.339496 22.2392 1.94546 25.4348 4.56926 27.8643C6.4933 29.6458 8.86225 30.9205 11.4344 31.5957V34.8111C11.4344 36.5491 12.6341 38.0275 14.3085 38.5752C14.3697 43.8533 19.0097 48.1145 24.7245 48.1145C30.4775 48.1145 35.1411 43.7964 35.1411 38.4696V33.1482C35.1411 30.3929 37.5533 28.1594 40.529 28.1594C43.5047 28.1594 45.9169 30.3929 45.9169 33.1482V36.3685C44.2427 36.9164 43.0433 38.3948 43.0433 40.1325C43.0433 42.3367 44.9731 44.1235 47.3536 44.1235C49.7342 44.1235 51.664 42.3367 51.664 40.1325C51.664 38.3948 50.4645 36.9164 48.7904 36.3685V33.1482C48.7904 28.9235 45.0916 25.4987 40.529 25.4987C35.9664 25.4987 32.2675 28.9235 32.2675 33.1482V38.4696C32.2675 42.3269 28.8904 45.4539 24.7245 45.4539C20.5965 45.4539 17.2431 42.3836 17.1823 38.5748C18.856 38.0267 20.055 36.5485 20.055 34.8111V31.5957C22.6271 30.9205 24.9962 29.6458 26.9202 27.8643C29.544 25.4348 31.1499 22.2392 31.4839 18.8452C31.5561 18.1136 30.9059 17.5166 30.1124 17.5166V5.54354C30.1124 3.33936 28.1827 1.55251 25.8021 1.55251H25.4176C24.9208 0.757232 23.9922 0.222168 22.9285 0.222168C21.3415 0.222168 20.055 1.4134 20.055 2.88286C20.055 4.35231 21.3415 5.54354 22.9285 5.54354C23.9922 5.54354 24.9208 5.00848 25.4176 4.2132H25.8021C26.5956 4.2132 27.2388 4.80882 27.2388 5.54354V17.5166H25.572C24.7785 17.5166 24.1478 18.1165 24.0126 18.8406C23.7195 20.4096 22.9101 21.8691 21.6777 23.0102C20.1043 24.4671 17.9701 25.2857 15.7447 25.2857C13.5194 25.2857 11.3852 24.4671 9.81167 23.0102C8.57935 21.8691 7.76987 20.4096 7.47677 18.8406C7.34157 18.1165 6.71083 17.5166 5.91744 17.5166ZM26.6361 20.1773H28.3523C27.8154 22.3586 26.6241 24.3758 24.8883 25.9829C22.4633 28.2283 19.1742 29.4897 15.7447 29.4897C12.3152 29.4897 9.02619 28.2283 6.6012 25.9829C4.8654 24.3758 3.67403 22.3586 3.13703 20.1773H4.85327C5.35716 21.9455 6.35911 23.5761 7.77979 24.8915C9.89227 26.8475 12.7573 27.9464 15.7447 27.9464C18.7322 27.9464 21.5972 26.8475 23.7097 24.8915C25.1304 23.5761 26.1322 21.9455 26.6361 20.1773ZM47.3536 38.8021C48.1472 38.8021 48.7904 39.3977 48.7904 40.1325C48.7904 40.8672 48.1472 41.4628 47.3536 41.4628C46.5601 41.4628 45.9169 40.8672 45.9169 40.1325C45.9169 39.3977 46.5601 38.8021 47.3536 38.8021ZM17.1814 32.1504V34.8111C17.1814 35.5459 16.5382 36.1414 15.7447 36.1414C14.9511 36.1414 14.3079 35.5459 14.3079 34.8111V32.1504H17.1814Z" fill="#555555"/>
</svg>
