<svg width="48" height="57" viewBox="0 0 48 57" fill="none" xmlns="http://www.w3.org/2000/svg">
<path d="M23.846 10.4902C25.1205 10.4902 26.1537 9.53357 26.1537 8.35347C26.1537 7.17339 25.1205 6.21673 23.846 6.21673V10.4902ZM7.04945 43.9692C7.95409 44.8002 9.41521 44.7951 10.313 43.9575C11.2107 43.1199 11.2051 41.7669 10.3004 40.9356L7.04945 43.9692ZM18.8488 15.7152C18.1421 16.6971 18.4285 18.0237 19.4891 18.6783C20.5494 19.3329 21.982 19.0676 22.6891 18.0857L18.8488 15.7152ZM26.9229 8.35347L28.8429 9.53873C29.55 8.55682 29.2632 7.2302 28.2029 6.57562L26.9229 8.35347ZM18.9722 0.877658C17.9119 0.223048 16.479 0.488373 15.7719 1.47027C15.0651 2.45217 15.3516 3.7788 16.4122 4.43338L18.9722 0.877658ZM23.846 46.0136C22.5716 46.0136 21.5383 46.9703 21.5383 48.1503C21.5383 49.3304 22.5716 50.287 23.846 50.287V46.0136ZM40.6425 12.5347C39.7379 11.7034 38.2767 11.7086 37.3788 12.5463C36.4813 13.3839 36.4868 14.7368 37.3914 15.568L40.6425 12.5347ZM28.8429 40.8774C29.55 39.8957 29.2632 38.5689 28.2029 37.9145C27.1426 37.2598 25.7097 37.525 25.0026 38.5071L28.8429 40.8774ZM20.7691 48.2392L18.8488 47.054C18.1421 48.0358 18.4285 49.3626 19.4891 50.017L20.7691 48.2392ZM28.7198 55.7149C29.7801 56.3696 31.2127 56.1044 31.9198 55.1223C32.6269 54.1406 32.3401 52.8138 31.2798 52.1594L28.7198 55.7149ZM23.846 6.21673C10.6762 6.21673 0 16.1021 0 28.2963H4.61535C4.61535 18.4623 13.2252 10.4902 23.846 10.4902V6.21673ZM0 28.2963C0 34.4236 2.6985 39.9712 7.04945 43.9692L10.3004 40.9356C6.7869 37.7074 4.61535 33.2385 4.61535 28.2963H0ZM22.6891 18.0857L28.8429 9.53873L25.0026 7.16823L18.8488 15.7152L22.6891 18.0857ZM28.2029 6.57562L18.9722 0.877658L16.4122 4.43338L25.6429 10.1313L28.2029 6.57562ZM23.846 50.287C37.0158 50.287 47.692 40.4017 47.692 28.2075H43.0766C43.0766 38.0416 34.4669 46.0136 23.846 46.0136V50.287ZM47.692 28.2075C47.692 22.0802 44.9935 16.5326 40.6425 12.5347L37.3914 15.568C40.905 18.7965 43.0766 23.2651 43.0766 28.2075H47.692ZM25.0026 38.5071L18.8488 47.054L22.6891 49.4244L28.8429 40.8774L25.0026 38.5071ZM19.4891 50.017L28.7198 55.7149L31.2798 52.1594L22.0491 46.4614L19.4891 50.017Z" fill="#555555"/>
</svg>
