<svg width="50" height="47" viewBox="0 0 50 47" fill="none" xmlns="http://www.w3.org/2000/svg">
<path d="M1.37186 38.8958C-0.457614 40.5898 -0.457614 43.3332 1.37186 45.0272C2.2866 45.8742 3.48544 46.2963 4.68428 46.2963C5.88312 46.2963 7.08196 45.8742 7.9967 45.0272L23.3724 30.79L16.7476 24.6586L1.37186 38.8958ZM39.8003 12.5085L46.4907 9.30262L49.9998 3.02668L46.731 0L39.9532 3.24927L36.491 9.44427L28.3364 16.9951L31.6457 20.0593L39.8003 12.5085ZM41.2645 28.9659C41.0522 28.9543 40.8492 28.9081 40.6338 28.9081C39.4912 28.9081 38.4079 29.1249 37.3963 29.4718L18.1712 11.6702C18.5459 10.7336 18.78 9.73046 18.78 8.67243C18.78 8.47296 18.73 8.28506 18.7176 8.08848C18.3866 3.57593 14.3718 0 9.41407 0C7.97172 0 6.61991 0.326661 5.39921 0.867243L11.6213 6.62862C11.9491 6.93216 12.1739 7.29062 12.3238 7.66931C12.7327 8.69555 12.5111 9.88946 11.6213 10.7162C11.0125 11.2799 10.2133 11.5632 9.41407 11.5632C9.04568 11.5632 8.68041 11.4881 8.33075 11.3667C7.92177 11.225 7.53464 11.0198 7.20684 10.7162L0.984739 4.95485C0.40093 6.08515 0.0481466 7.33687 0.0481466 8.67243C0.0481466 13.263 3.91003 16.9806 8.78343 17.287C8.99573 17.2986 9.19866 17.3449 9.41407 17.3449C10.5567 17.3449 11.64 17.128 12.6516 16.7811L31.8767 34.5827C31.5021 35.5194 31.2679 36.5225 31.2679 37.5805C31.2679 37.78 31.3179 37.9679 31.3303 38.1645C31.6613 42.677 35.6761 46.2529 40.6338 46.2529C42.0762 46.2529 43.428 45.9263 44.6487 45.3857L38.4266 39.6243C38.0988 39.3208 37.874 38.9623 37.7241 38.5836C37.3152 37.5574 37.5368 36.3635 38.4266 35.5367C39.0354 34.973 39.8346 34.6897 40.6338 34.6897C41.0022 34.6897 41.3675 34.7649 41.7172 34.8863C42.1261 35.0279 42.5133 35.2332 42.8411 35.5367L49.0632 41.2981C49.647 40.1678 49.9998 38.9161 49.9998 37.5805C49.9998 32.9899 46.1379 29.2723 41.2645 28.9659Z" fill="#555555"/>
</svg>
